<?xml version="1.0" encoding="UTF-8" standalone="no"?>
<!DOCTYPE svg PUBLIC "-//W3C//DTD SVG 1.1//EN" "http://www.w3.org/Graphics/SVG/1.1/DTD/svg11.dtd">
<svg width="100%" height="100%" viewBox="0 0 506 366" version="1.1" xmlns="http://www.w3.org/2000/svg" xmlns:xlink="http://www.w3.org/1999/xlink" xml:space="preserve" xmlns:serif="http://www.serif.com/" style="fill-rule:evenodd;clip-rule:evenodd;stroke-linejoin:round;stroke-miterlimit:2;">
    <g transform="matrix(1,0,0,1,-373.095,-891.644)">
        <g transform="matrix(1.27892,0,0,1.2411,52.8094,-14.0788)">
            <path d="M551.804,738.396C554.347,733.34 559.403,730.156 564.93,730.132C577.885,730.074 602.292,729.966 620.904,729.883C626.128,729.86 630.98,732.666 633.683,737.273C636.385,741.881 636.54,747.612 634.091,752.367C620.349,779.056 597.453,823.522 582.355,852.841C579.639,858.117 574.193,861.283 568.406,860.951C562.619,860.619 557.548,856.849 555.417,851.296C547.04,829.468 536.491,801.979 531.766,789.666C530.185,785.547 530.413,780.924 532.391,776.992C537.2,767.43 546.439,749.062 551.804,738.396Z" style="fill:rgb(230,195,42);"/>
        </g>
        <g transform="matrix(1.27892,0,0,1.2411,-341.224,-14.4131)">
            <path d="M566.954,751.193C565.073,746.468 565.602,741.087 568.365,736.847C571.129,732.607 575.762,730.066 580.719,730.073C597.579,730.097 619.964,730.129 632.637,730.147C638.61,730.155 643.997,733.848 646.312,739.522C660.379,773.995 709.107,893.403 721.157,922.933C722.874,927.141 722.679,931.918 720.626,935.963C714.554,947.924 701.125,974.38 690.528,995.257C687.85,1000.53 682.447,1003.73 676.676,1003.45C670.905,1003.18 665.812,999.48 663.619,993.972C639.8,934.149 587.414,802.579 566.954,751.193Z"/>
        </g>
        <g transform="matrix(1.27892,0,0,1.2411,-178.348,-14.4131)">
            <path d="M563.429,751.356C561.483,746.624 561.97,741.202 564.727,736.92C567.483,732.638 572.14,730.066 577.127,730.072C595.046,730.097 619.281,730.129 632.637,730.147C638.609,730.156 643.997,733.849 646.312,739.522C660.38,773.997 709.107,893.403 721.157,922.933C722.874,927.141 722.679,931.918 720.626,935.963C714.512,948.007 700.938,974.748 690.307,995.691C687.644,1000.94 682.283,1004.13 676.541,1003.89C670.8,1003.65 665.707,1000.02 663.465,994.569C639.001,935.092 584.682,803.028 563.429,751.356Z"/>
        </g>
    </g>
</svg>
